<svg xmlns="http://www.w3.org/2000/svg" viewBox="0 0 64 64" role="img" aria-label="Shahan Madhushanka favicon">
  <defs>
    <linearGradient id="g" x1="0%" y1="0%" x2="100%" y2="100%">
      <stop offset="0%" stop-color="#00e0b8"/>
      <stop offset="55%" stop-color="#5b8cff"/>
      <stop offset="100%" stop-color="#a76dff"/>
    </linearGradient>
  </defs>
  <rect width="64" height="64" rx="16" fill="#0b1220"/>
  <path d="M20 17h10.5c7.7 0 12.5 3.9 12.5 10.3 0 4.4-2 7.4-5.8 9 4.8 1.2 7.5 4.4 7.5 9.2 0 7-5.4 11.5-14 11.5H20V17zm10 15.4c3.8 0 6.1-1.6 6.1-4.4 0-2.8-2-4.2-5.8-4.2h-3.5v8.6H30zm.8 17.8c4.5 0 7-1.7 7-4.8 0-3.2-2.5-4.9-7-4.9h-4v9.7h4z" fill="url(#g)"/>
  <circle cx="49" cy="15" r="4" fill="#00e0b8" opacity="0.9"/>
</svg>